<svg data-v-423bf9ae="" xmlns="http://www.w3.org/2000/svg" viewBox="0 0 360.5237942491624 60" class="font"><!----><!----><!----><g data-v-423bf9ae="" id="43bea7e9-5fe6-481e-8111-91363d51fed0" fill="white" transform="matrix(4.761904617736313,0,0,4.761904617736313,-5.476190830394586,-18.952380946253804)"><path d="M1.15 3.98L1.15 13.78L1.90 13.78L1.90 9.60L4.70 9.60C6.41 9.60 7.76 8.58 7.76 6.79C7.76 5.00 6.41 3.98 4.70 3.98ZM1.90 4.65L4.62 4.65C6.13 4.65 7 5.43 7 6.79C7 8.15 6.13 8.93 4.62 8.93L1.90 8.93ZM14.67 6.83L12.11 13.16L11.97 13.16L9.41 6.83L8.65 6.83L11.68 14.20L10.67 16.58L11.42 16.58L15.43 6.83ZM22.71 6.83L22.71 8.18L22.51 8.18C22.12 7.42 21.35 6.64 19.82 6.64C17.96 6.64 16.55 8.06 16.55 10.25C16.55 12.43 17.96 13.86 19.82 13.86C21.35 13.86 22.12 13.08 22.51 12.32L22.68 12.32L22.68 15.54C22.68 15.82 22.54 15.96 22.29 15.96L17.11 15.96L17.11 16.58L22.48 16.58C23.04 16.58 23.38 16.24 23.38 15.65L23.38 6.83ZM19.95 13.22C18.35 13.22 17.28 12.07 17.28 10.25C17.28 8.43 18.35 7.28 19.95 7.28C21.55 7.28 22.68 8.46 22.68 10.25C22.68 12.04 21.55 13.22 19.95 13.22ZM25.68 6.83L25.68 13.78L26.38 13.78L26.38 9.48C26.38 8.08 27.26 7.34 28.36 7.34C29.48 7.34 30.13 8.02 30.13 9.02L30.13 13.78L30.83 13.78L30.83 9.48C30.83 8.08 31.71 7.34 32.82 7.34C33.94 7.34 34.58 8.02 34.58 9.02L34.58 13.78L35.28 13.78L35.28 8.93C35.28 7.62 34.36 6.69 32.94 6.69C31.96 6.69 31.19 7.10 30.76 7.99L30.56 7.99C30.30 7.24 29.61 6.69 28.56 6.69C27.55 6.69 26.91 7.10 26.54 7.77L26.35 7.77L26.35 6.83ZM37.04 10.25C37.04 12.35 38.42 13.97 40.53 13.97C42.34 13.97 43.11 12.98 43.57 12.03L42.90 11.76C42.50 12.64 41.85 13.33 40.53 13.33C38.95 13.33 37.87 12.24 37.77 10.46L43.78 10.46L43.78 10.01C43.78 7.90 42.36 6.64 40.49 6.64C38.54 6.64 37.04 8.20 37.04 10.25ZM37.77 9.84C37.94 8.26 39.06 7.28 40.49 7.28C41.93 7.28 42.99 8.18 43.05 9.84ZM45.63 6.83L45.63 13.78L46.33 13.78L46.33 10.22C46.33 8.29 47.43 7.34 48.87 7.34C50.18 7.34 51.03 7.98 51.03 9.52L51.03 13.78L51.73 13.78L51.73 9.46C51.73 7.57 50.44 6.69 49.01 6.69C47.59 6.69 46.87 7.41 46.49 8.12L46.30 8.12L46.30 6.83ZM52.99 6.83L52.99 7.45L55.31 7.45L55.31 12.85C55.31 13.44 55.65 13.78 56.21 13.78L58.06 13.78L58.06 13.16L56.41 13.16C56.15 13.16 56.01 13.02 56.01 12.74L56.01 7.45L58.45 7.45L58.45 6.83L56.01 6.83L56.01 4.40L55.31 4.40L55.31 6.83ZM59.79 4.80C59.79 5.21 60.09 5.52 60.51 5.52C60.93 5.52 61.22 5.21 61.22 4.80C61.22 4.40 60.93 4.09 60.51 4.09C60.09 4.09 59.79 4.40 59.79 4.80ZM60.86 6.83L60.16 6.83L60.16 13.78L60.86 13.78ZM62.89 6.83L62.89 7.45L67.77 7.45L62.76 13.22L62.76 13.78L68.81 13.78L68.81 13.16L63.69 13.16L68.70 7.39L68.70 6.83ZM70.13 10.25C70.13 12.35 71.50 13.97 73.61 13.97C75.42 13.97 76.19 12.98 76.65 12.03L75.98 11.76C75.59 12.64 74.93 13.33 73.61 13.33C72.03 13.33 70.95 12.24 70.85 10.46L76.86 10.46L76.86 10.01C76.86 7.90 75.45 6.64 73.57 6.64C71.62 6.64 70.13 8.20 70.13 10.25ZM70.85 9.84C71.02 8.26 72.14 7.28 73.57 7.28C75.01 7.28 76.08 8.18 76.13 9.84Z"></path></g><!----><!----></svg>